<svg width="32" height="32" viewBox="0 0 32 32" fill="none" xmlns="http://www.w3.org/2000/svg">
<path fill-rule="evenodd" clip-rule="evenodd" d="M26.579 7.37793C26.291 7.76793 24.001 10.7039 18.948 12.7669C19.266 13.4169 19.571 14.0799 19.854 14.7459C19.955 14.9819 20.053 15.2169 20.149 15.4509C24.696 14.8799 29.215 15.7959 29.665 15.8909C29.635 12.6659 28.482 9.70393 26.579 7.37793ZM12.798 2.734C13.175 3.24 15.658 6.62 17.897 10.734C22.757 8.913 24.814 6.148 25.06 5.798C22.646 3.656 19.473 2.354 16 2.354C14.898 2.354 13.825 2.486 12.798 2.734ZM2.623 13.2211C3.234 13.2291 8.864 13.2541 15.257 11.5561C12.993 7.5311 10.55 4.1461 10.19 3.6521C6.367 5.4561 3.509 8.9801 2.623 13.2211ZM5.847 25.158C6.157 24.628 9.907 18.418 16.956 16.14C17.134 16.082 17.314 16.028 17.494 15.977C17.151 15.201 16.778 14.424 16.386 13.658C9.561 15.7 2.939 15.615 2.341 15.603C2.337 15.742 2.334 15.881 2.334 16.02C2.334 19.53 3.664 22.735 5.847 25.158ZM21.339 28.6011C21.135 27.4021 20.342 23.2231 18.423 18.2371C18.393 18.2471 18.363 18.2571 18.333 18.2671C10.625 20.9531 7.858 26.2991 7.612 26.8021C9.929 28.6091 12.841 29.6871 16 29.6871C17.893 29.6871 19.698 29.3001 21.339 28.6011ZM29.494 18.19C29.026 18.042 25.264 16.92 20.981 17.605C22.769 22.517 23.496 26.518 23.636 27.349C26.702 25.276 28.885 21.992 29.494 18.19ZM16 32C7.178 32 0 24.822 0 16C0 7.177 7.178 0 16 0C24.823 0 32 7.177 32 16C32 24.822 24.823 32 16 32Z" fill="#F58E23"/>
</svg>
