<?xml version="1.0" encoding="utf-8"?>
<!-- Generator: Adobe Illustrator 25.4.1, SVG Export Plug-In . SVG Version: 6.00 Build 0)  -->
<svg version="1.1" id="Layer_1" xmlns="http://www.w3.org/2000/svg" xmlns:xlink="http://www.w3.org/1999/xlink" x="0px" y="0px"
	 viewBox="0 0 201.7 38" style="enable-background:new 0 0 201.7 38;" xml:space="preserve">
<style type="text/css">
	.st0{display:none;fill:#F68A53;}
	.st1{fill:#F68A53;}
	.st2{display:none;}
	.st3{enable-background:new    ;}
	.st4{fill:#FFFFFF;}
</style>
<path class="st0" d="M188.6,256H10.2c-3,0-5.4-2.4-5.4-5.4v-19.7c0-3,2.4-5.4,5.4-5.4h178.3c3,0,5.4,2.4,5.4,5.4v19.7
	C194,253.6,191.6,256,188.6,256z"/>
<path class="st1" d="M195,34.3H7.5c-3.1,0-5.7-2.4-5.7-5.4V9.2c0-3,2.5-5.4,5.7-5.4H195c3.1,0,5.7,2.4,5.7,5.4v19.7
	C200.7,31.9,198.1,34.3,195,34.3z"/>
<g id="Layer_3" class="st2">
</g>
<g class="st2">
	
		<text transform="matrix(1 0 0 1 12.2086 249.2609)" style="display:inline;fill:#FFFFFF; font-family:'Plumpfull'; font-size:22.6334px;">KATHLEEN OUM</text>
</g>
<g>
	<g class="st3">
		<path class="st4" d="M22.8,26.6c0.1,0.2,0.1,0.4-0.1,0.6c-0.1,0.2-0.3,0.3-0.6,0.4c-1.3,0.1-2.6,0.2-3.9,0.2
			c-0.3,0-0.4-0.1-0.5-0.3c-0.8-1.3-1.7-2.7-2.7-4.3c-0.3-0.5-0.5-0.9-0.7-1.4c0,1.8,0,3.6,0,5.4c0,0.2-0.1,0.3-0.2,0.5
			c-0.1,0.1-0.3,0.2-0.5,0.2c-1.3,0-2.6-0.1-3.9-0.2c-0.2,0-0.3-0.1-0.4-0.2c-0.1-0.1-0.2-0.3-0.2-0.5c-0.3-5-0.3-10,0-14.9
			c0-0.2,0.1-0.3,0.2-0.5c0.1-0.1,0.3-0.2,0.4-0.2c1.3-0.1,2.6-0.2,3.9-0.2c0.2,0,0.3,0.1,0.5,0.2c0.1,0.1,0.2,0.3,0.2,0.5
			c0,2.1,0,4.2,0,6.4c0.1-0.3,0.2-0.6,0.3-0.8c1.2-2.4,2.1-4.4,2.8-5.9c0.1-0.2,0.3-0.3,0.5-0.3c1.3,0,2.6,0.1,3.8,0.2
			c0.3,0,0.4,0.1,0.6,0.4c0.1,0.2,0.1,0.4,0,0.6c-0.8,1.8-2.1,4.5-3.9,8.2C20.4,23.3,21.8,25.3,22.8,26.6z"/>
		<path class="st4" d="M36.1,11.5c0.2,0.5,0.5,1.5,1,3c0.5,1.5,0.9,2.6,1.1,3.3c0.2,0.7,0.5,1.7,0.9,2.8c0.4,1.2,0.7,2.2,1,3.2
			c0.3,1,0.6,1.9,0.8,2.9c0,0.2,0,0.4-0.1,0.6c-0.1,0.2-0.3,0.3-0.5,0.3c-1.3,0.1-2.5,0.1-3.8,0.2c-0.3,0-0.5-0.1-0.6-0.4
			c-0.2-0.6-0.4-1.3-0.6-1.9c-1.5,0-3,0-4.5,0c-0.2,0.7-0.4,1.3-0.6,1.9c-0.1,0.3-0.3,0.4-0.6,0.4c-1.3,0-2.6-0.1-3.8-0.2
			c-0.2,0-0.4-0.1-0.5-0.3c-0.1-0.2-0.2-0.4-0.1-0.6c0.2-0.9,0.5-1.9,0.8-2.9c0.3-1,0.6-2,1-3.2c0.4-1.2,0.7-2.1,0.9-2.8
			c0.2-0.7,0.6-1.8,1.1-3.3c0.5-1.5,0.8-2.5,1-3c0.1-0.3,0.3-0.5,0.6-0.5c1.7,0,3.4,0,5.1,0C35.8,11,36,11.2,36.1,11.5z M31.8,21.6
			c0.7,0,1.5,0,2.2,0c0,0-0.4-1.5-1.1-4.3c-0.1,0.3-0.2,0.8-0.4,1.3c-0.2,0.6-0.3,1.1-0.4,1.6C32,20.8,31.9,21.2,31.8,21.6z"/>
		<path class="st4" d="M53.8,15.7c-0.9,0-1.8-0.1-2.7-0.1c0,3.8,0,7.6-0.1,11.5c0,0.1,0,0.2-0.1,0.2c0,0.1-0.1,0.1-0.1,0.2
			c-0.1,0.1-0.1,0.1-0.2,0.1c-0.1,0-0.2,0.1-0.2,0.1c-1.3,0-2.6,0-4,0c-0.2,0-0.3-0.1-0.5-0.2c-0.1-0.1-0.2-0.3-0.2-0.5
			c-0.1-3.8-0.1-7.7,0-11.5c-0.9,0-1.8,0-2.7,0.1c-0.2,0-0.3,0-0.5-0.2c-0.1-0.1-0.2-0.3-0.2-0.4c0-1.1,0.1-2.1,0.1-3.1
			c0-0.2,0.1-0.3,0.2-0.5c0.1-0.1,0.3-0.2,0.5-0.2c3.5-0.3,6.9-0.3,10.4,0c0.2,0,0.3,0.1,0.5,0.2c0.1,0.1,0.2,0.3,0.2,0.5
			c0.1,1,0.1,2.1,0.1,3.1c0,0.2,0,0.3-0.2,0.4S54,15.7,53.8,15.7z"/>
		<path class="st4" d="M61.4,17.6c1.3,0,2.7,0,4.1,0c0-1.9,0-3.9-0.1-5.8c0-0.2,0.1-0.3,0.2-0.5c0.1-0.1,0.3-0.2,0.4-0.2
			c1.3,0,2.6,0.1,4,0.2c0.4,0,0.6,0.4,0.7,1.1c0.3,5,0.3,10,0,14.9c0,0-0.1,0-0.1,0.1c0,0-0.1,0.1-0.1,0.1c0,0-0.1,0.1-0.2,0.1
			c-0.1,0-0.1,0-0.2,0c-1.3,0.1-2.6,0.2-4,0.2c-0.2,0-0.3-0.1-0.4-0.2c-0.1-0.1-0.2-0.3-0.2-0.5c0-1.8,0.1-3.6,0.1-5.4
			c-1.4,0-2.7,0-4.1,0c0,1.8,0,3.6,0,5.4c0,0.2-0.1,0.3-0.2,0.5c-0.1,0.1-0.3,0.2-0.4,0.2c-1.3,0-2.6-0.1-3.9-0.2
			c-0.1,0-0.2,0-0.3-0.1c-0.1-0.1-0.2-0.1-0.2-0.1c-0.1,0-0.1,0-0.1,0c-0.3-5-0.3-10,0-14.9c0-0.7,0.3-1,0.7-1.1
			c1.3-0.1,2.6-0.2,3.9-0.2c0.2,0,0.3,0.1,0.4,0.2c0.1,0.1,0.2,0.3,0.2,0.5C61.4,13.7,61.4,15.7,61.4,17.6z"/>
		<path class="st4" d="M78.4,23.7c1.5,0,3-0.1,4.5-0.1c0.2,0,0.3,0,0.5,0.2c0.1,0.1,0.2,0.3,0.2,0.4c0,0.9,0,1.9-0.1,2.8
			c0,0.2-0.1,0.3-0.2,0.5c-0.1,0.1-0.3,0.2-0.5,0.2c-3,0.3-6,0.3-9,0c-0.2,0-0.3-0.1-0.5-0.2c-0.1-0.1-0.2-0.3-0.2-0.5
			c-0.2-5-0.2-10,0-14.9c0-0.2,0.1-0.3,0.2-0.5c0.1-0.1,0.3-0.2,0.5-0.2c1.3-0.1,2.6-0.2,3.9-0.2c0.2,0,0.3,0.1,0.4,0.2
			c0.1,0.1,0.2,0.3,0.2,0.5C78.4,15.7,78.4,19.7,78.4,23.7z"/>
		<path class="st4" d="M96,15.4c-1.6-0.1-3.1-0.1-4.7-0.1c0,1,0,1.8,0,2.3c1.3,0,2.7,0,4,0c0.2,0,0.3,0.1,0.5,0.2
			c0.1,0.1,0.2,0.3,0.2,0.4c0,1,0,1.9,0,2.8c0,0.2-0.1,0.3-0.2,0.5c-0.1,0.1-0.3,0.2-0.5,0.2c-1.3,0-2.7,0-4,0c0,0.6,0,1.3,0,1.9
			c1.6,0,3.2,0,4.7-0.1c0.2,0,0.3,0,0.5,0.2c0.1,0.1,0.2,0.3,0.2,0.4c0,0.9-0.1,1.9-0.1,2.8c0,0.2-0.1,0.3-0.2,0.5
			c-0.1,0.1-0.3,0.2-0.4,0.2c-3.1,0.3-6.1,0.3-9.2,0c-0.2,0-0.3-0.1-0.4-0.2C86.1,27.3,86,27.1,86,27c-0.2-5-0.2-10,0-14.9
			c0-0.2,0.1-0.3,0.2-0.5c0.1-0.1,0.3-0.2,0.4-0.2c3.1-0.3,6.1-0.3,9.2,0c0.2,0,0.3,0.1,0.4,0.2s0.2,0.3,0.2,0.5
			c0,0.9,0.1,1.9,0.1,2.8c0,0.2-0.1,0.3-0.2,0.4S96.2,15.4,96,15.4z"/>
		<path class="st4" d="M109,15.4c-1.6-0.1-3.1-0.1-4.7-0.1c0,1,0,1.8,0,2.3c1.3,0,2.7,0,4,0c0.2,0,0.3,0.1,0.5,0.2
			c0.1,0.1,0.2,0.3,0.2,0.4c0,1,0,1.9,0,2.8c0,0.2-0.1,0.3-0.2,0.5c-0.1,0.1-0.3,0.2-0.5,0.2c-1.3,0-2.7,0-4,0c0,0.6,0,1.3,0,1.9
			c1.6,0,3.2,0,4.7-0.1c0.2,0,0.3,0,0.5,0.2c0.1,0.1,0.2,0.3,0.2,0.4c0,0.9-0.1,1.9-0.1,2.8c0,0.2-0.1,0.3-0.2,0.5
			c-0.1,0.1-0.3,0.2-0.4,0.2c-3.1,0.3-6.1,0.3-9.2,0c-0.2,0-0.3-0.1-0.4-0.2c-0.1-0.1-0.2-0.3-0.2-0.5c-0.2-5-0.2-10,0-14.9
			c0-0.2,0.1-0.3,0.2-0.5c0.1-0.1,0.3-0.2,0.4-0.2c3.1-0.3,6.1-0.3,9.2,0c0.2,0,0.3,0.1,0.4,0.2c0.1,0.1,0.2,0.3,0.2,0.5
			c0,0.9,0.1,1.9,0.1,2.8c0,0.2-0.1,0.3-0.2,0.4C109.4,15.4,109.2,15.4,109,15.4z"/>
		<path class="st4" d="M122.1,19.2c0-2.5,0-4.9-0.1-7.4c0-0.2,0.1-0.3,0.2-0.5c0.1-0.1,0.3-0.2,0.5-0.2c1.3,0,2.6,0.1,3.9,0.2
			c0.2,0,0.3,0.1,0.4,0.2s0.2,0.3,0.2,0.5c0.3,5,0.3,10,0,14.9c0,0.1,0,0.2-0.1,0.2c0,0.1-0.1,0.1-0.1,0.2c-0.1,0.1-0.1,0.1-0.2,0.1
			c-0.1,0-0.2,0.1-0.2,0.1c-1.4,0.1-2.8,0.2-4.2,0.2c-0.2,0-0.4-0.1-0.5-0.3c-1.1-1.7-2.6-4.2-4.7-7.4c0,2.3,0,4.7,0.1,7
			c0,0.2-0.1,0.3-0.2,0.5s-0.3,0.2-0.4,0.2c-1.3,0-2.6-0.1-3.9-0.2c-0.2,0-0.3-0.1-0.5-0.2c-0.1-0.1-0.2-0.3-0.2-0.5
			c-0.3-5-0.3-10,0-14.9c0-0.2,0.1-0.3,0.2-0.5s0.3-0.2,0.5-0.2c1.3-0.1,2.6-0.2,3.9-0.2c0.2,0,0.4,0.1,0.5,0.3
			C118.2,13.2,119.9,15.8,122.1,19.2z"/>
		<path class="st4" d="M147.1,10.9c3.2,0,5.6,1,7.1,2.8c1.2,1.5,1.8,3.4,1.7,5.8c0,2.4-0.6,4.3-1.7,5.8c-1.5,1.9-3.9,2.8-7.1,2.8
			c-3.2,0-5.6-1-7.1-2.8c-1.2-1.5-1.8-3.4-1.8-5.8c0-2.4,0.6-4.3,1.8-5.8C141.5,11.9,143.9,10.9,147.1,10.9z M147.1,23.5
			c0.5,0,0.9-0.1,1.3-0.2s0.6-0.4,0.8-0.6c0.2-0.2,0.4-0.5,0.5-0.9c0.1-0.4,0.2-0.7,0.2-1.1c0-0.3,0.1-0.7,0.1-1.2s0-0.8-0.1-1.2
			c0-0.3-0.1-0.7-0.2-1.1c-0.1-0.4-0.3-0.7-0.5-0.9c-0.2-0.2-0.5-0.4-0.8-0.6c-0.4-0.2-0.8-0.2-1.3-0.2s-0.9,0.1-1.3,0.2
			c-0.4,0.2-0.6,0.4-0.8,0.6s-0.4,0.5-0.5,0.9c-0.1,0.4-0.2,0.7-0.2,1.1c0,0.3-0.1,0.7-0.1,1.2s0,0.8,0.1,1.2c0,0.3,0.1,0.7,0.2,1.1
			s0.3,0.7,0.5,0.9c0.2,0.2,0.5,0.4,0.8,0.6S146.6,23.5,147.1,23.5z"/>
		<path class="st4" d="M162.7,22c0,0.4,0.1,0.7,0.4,1c0.3,0.2,0.6,0.3,1,0.3c0.4,0,0.7-0.1,1-0.4c0.3-0.2,0.4-0.6,0.4-1
			c0-3.4,0-6.9,0-10.3c0-0.2,0.1-0.3,0.2-0.5c0.1-0.1,0.3-0.2,0.5-0.2c1.3,0,2.6,0.1,3.9,0.2c0.2,0,0.3,0.1,0.4,0.2
			c0.1,0.1,0.2,0.3,0.2,0.5c0.2,3.5,0.2,6.9,0.2,10.4c0,1.7-0.8,3.1-2.2,4.2c-1.3,1-2.8,1.5-4.6,1.5c-1.8,0-3.3-0.5-4.6-1.5
			c-1.4-1.1-2.1-2.5-2.2-4.2c-0.1-3.5,0-6.9,0.2-10.4c0-0.2,0.1-0.3,0.2-0.5c0.1-0.1,0.3-0.2,0.4-0.2c1.3-0.1,2.6-0.2,3.9-0.2
			c0.2,0,0.3,0,0.5,0.2c0.1,0.1,0.2,0.3,0.2,0.5C162.7,15.2,162.7,18.6,162.7,22z"/>
		<path class="st4" d="M186.8,19.4c-0.3,0.7-0.6,1.7-1.1,3c-0.5,1.3-0.8,2.2-1,2.7c0,0.2-0.1,0.3-0.2,0.4c-0.1,0.1-0.2,0.1-0.4,0.1
			c-0.7,0-1.4,0-2,0c-0.3,0-0.5-0.2-0.6-0.5c-0.3-0.6-0.6-1.6-1.2-2.9s-0.9-2.2-1.2-2.9c-0.5,2.9-0.9,5.6-1.2,7.9
			c0,0.2-0.1,0.3-0.2,0.4s-0.2,0.1-0.4,0.1c-1.3,0-2.6-0.1-3.9-0.2c-0.2,0-0.4-0.1-0.5-0.3s-0.2-0.3-0.2-0.5
			c0.5-4.1,1.4-9.1,2.8-15.1c0-0.2,0.1-0.3,0.2-0.4c0.1-0.1,0.3-0.2,0.4-0.2c1.4,0,2.9-0.1,4.3-0.1c0.3,0,0.5,0.2,0.6,0.5
			c0.4,1.6,1,3.9,1.8,6.9c0.8-2.9,1.5-5.2,1.9-6.9c0.1-0.3,0.3-0.5,0.6-0.5c1.4,0,2.8,0.1,4.3,0.1c0.2,0,0.3,0.1,0.4,0.2
			c0.1,0.1,0.2,0.2,0.2,0.4c1.4,5.9,2.3,10.9,2.8,15.1c0,0.2,0,0.3-0.2,0.5s-0.3,0.2-0.5,0.3c-1.3,0.1-2.6,0.1-3.9,0.2
			c-0.2,0-0.3-0.1-0.4-0.1s-0.2-0.2-0.2-0.4C187.7,24.9,187.3,22.3,186.8,19.4z"/>
	</g>
</g>
</svg>
