<?xml version="1.0"?>
<svg xmlns="http://www.w3.org/2000/svg" width="28" height="28" viewBox="0 0 28 28" fill="none">
  <g class="scaling-icon" style="fill-opacity: 1">
    <g class="bug-14dp" stroke="none" stroke-width="1" fill="none" fill-rule="evenodd">
      <g class="dp-1">
        <path d="M14,1.25 L14,12.75 C14,13.44 13.44,14 12.75,14 L1.25,14 C0.56,14 0,13.44 0,12.75 L0,1.25 C0,0.56 0.56,0 1.25,0 L12.75,0 C13.44,0 14,0.56 14,1.25" class="bug-text-color" fill="#FFFFFF"/>
        <path d="M14,1.25 L14,12.75 C14,13.44 13.44,14 12.75,14 L1.25,14 C0.56,14 0,13.44 0,12.75 L0,1.25 C0,0.56 0.56,0 1.25,0 L12.75,0 C13.44,0 14,0.56 14,1.25 Z M5,5 L6.85,5 L6.85,6.016 L6.893,6.016 C7.259,5.541 8.018,4.938 9.25,4.938 C11.125,4.938 12,5.808 12,8 L12,12 L10,12 L10,8.75 C10,7.313 9.672,6.875 8.632,6.875 C7.5,6.875 7,7.75 7,9 L7,12 L5,12 L5,5 Z M2,12 L4,12 L4,5 L2,5 L2,12 Z M4.335,3 C4.335,3.737 3.737,4.335 3,4.335 C2.263,4.335 1.665,3.737 1.665,3 C1.665,2.263 2.263,1.665 3,1.665 C3.737,1.665 4.335,2.263 4.335,3 Z" class="background" fill="#F58E23"/>
      </g>
      <g class="dpi-gt1" transform="scale(0.2917)">
        <rect class="bug-text-color" fill="#FFFFFF" x="1" y="1" width="46" height="46" rx="4"/>
        <path d="M0,4.00989318 C0,1.79529033 1.79405245,0 4.00989318,0 L43.9901068,0 C46.2047097,0 48,1.79405245 48,4.00989318 L48,43.9901068 C48,46.2047097 46.2059475,48 43.9901068,48 L4.00989318,48 C1.79529033,48 0,46.2059475 0,43.9901068 L0,4.00989318 Z M19,18.3 L25.5,18.3 L25.5,21.566 C26.437,19.688 28.838,18 32.445,18 C39.359,18 41,21.738 41,28.597 L41,41.3 L34,41.3 L34,30.159 C34,26.253 33.063,24.05 30.68,24.05 C27.375,24.05 26,26.425 26,30.159 L26,41.3 L19,41.3 L19,18.3 Z M7,41 L14,41 L14,18 L7,18 L7,41 Z M15,10.5 C15,12.985 12.985,15 10.5,15 C8.015,15 6,12.985 6,10.5 C6,8.015 8.015,6 10.5,6 C12.985,6 15,8.015 15,10.5 Z" class="background" fill="#F58E23"/>
      </g>
    </g>
    <g class="bug-21dp" stroke="none" stroke-width="1" fill="none" fill-rule="evenodd">
      <g class="dp-1">
        <path d="M19.479,0 L1.583,0 C0.728,0 0,0.677 0,1.511 L0,19.488 C0,20.323 0.478,21 1.333,21 L19.229,21 C20.086,21 21,20.323 21,19.488 L21,1.511 C21,0.677 20.336,0 19.479,0" class="bug-text-color" fill="#FFFFFF"/>
        <path d="M19.479,0 L1.583,0 C0.728,0 0,0.677 0,1.511 L0,19.488 C0,20.323 0.478,21 1.333,21 L19.229,21 C20.086,21 21,20.323 21,19.488 L21,1.511 C21,0.677 20.336,0 19.479,0 Z M8,8 L10.827,8 L10.827,9.441 L10.858,9.441 C11.289,8.664 12.562,7.875 14.136,7.875 C17.157,7.875 18,9.479 18,12.45 L18,18 L15,18 L15,12.997 C15,11.667 14.469,10.5 13.227,10.5 C11.719,10.5 11,11.521 11,13.197 L11,18 L8,18 L8,8 Z M3,18 L6,18 L6,8 L3,8 L3,18 Z M6.375,4.5 C6.375,5.536 5.536,6.375 4.5,6.375 C3.464,6.375 2.625,5.536 2.625,4.5 C2.625,3.464 3.464,2.625 4.5,2.625 C5.536,2.625 6.375,3.464 6.375,4.5 Z" class="background" fill="#F58E23"/>
      </g>
      <g class="dpi-gt1" transform="scale(0.4375)">
        <rect class="bug-text-color" fill="#FFFFFF" x="1" y="1" width="46" height="46" rx="4"/>
        <path d="M0,4.00989318 C0,1.79529033 1.79405245,0 4.00989318,0 L43.9901068,0 C46.2047097,0 48,1.79405245 48,4.00989318 L48,43.9901068 C48,46.2047097 46.2059475,48 43.9901068,48 L4.00989318,48 C1.79529033,48 0,46.2059475 0,43.9901068 L0,4.00989318 Z M19,18.3 L25.5,18.3 L25.5,21.566 C26.437,19.688 28.838,18 32.445,18 C39.359,18 41,21.738 41,28.597 L41,41.3 L34,41.3 L34,30.159 C34,26.253 33.063,24.05 30.68,24.05 C27.375,24.05 26,26.425 26,30.159 L26,41.3 L19,41.3 L19,18.3 Z M7,41 L14,41 L14,18 L7,18 L7,41 Z M15,10.5 C15,12.985 12.985,15 10.5,15 C8.015,15 6,12.985 6,10.5 C6,8.015 8.015,6 10.5,6 C12.985,6 15,8.015 15,10.5 Z" class="background" fill="#F58E23"/>
      </g>
    </g>
    <g class="bug-28dp" stroke="none" stroke-width="1" fill="none" fill-rule="evenodd">
      <g class="dp-1">
        <path d="M25.375,0 L2.625,0 C1.175,0 0,1.175 0,2.625 L0,25.375 C0,26.825 1.175,28 2.625,28 L25.375,28 C26.825,28 28,26.825 28,25.375 L28,2.625 C28,1.175 26.825,0 25.375,0" class="bug-text-color" fill="#FFFFFF"/>
        <path d="M25.375,0 L2.625,0 C1.175,0 0,1.175 0,2.625 L0,25.375 C0,26.825 1.175,28 2.625,28 L25.375,28 C26.825,28 28,26.825 28,25.375 L28,2.625 C28,1.175 26.825,0 25.375,0 Z M14.8747,12.025 L14.8747,10 L10.9997,10 L10.9997,24 L14.9997,24 L14.9997,17.375 C14.9997,15.603 15.6627,13.875 17.6497,13.875 C19.4667,13.875 19.9997,14.965 19.9997,16.875 L19.9997,24 L23.9997,24 L23.9997,14.975 C23.9997,11.75 22.2917,9.875 19.0137,9.875 C16.9227,9.875 15.4487,11.025 14.8747,12.025 Z M4,24 L8,24 L8,10 L4,10 L4,24 Z M6,3.665 C4.71,3.665 3.665,4.71 3.665,6 C3.665,7.29 4.71,8.335 6,8.335 C7.29,8.335 8.335,7.29 8.335,6 C8.335,4.71 7.29,3.665 6,3.665 Z" class="background" fill="#F58E23"/>
      </g>
      <g class="dpi-gt1" transform="scale(0.5833)">
        <rect class="bug-text-color" fill="#FFFFFF" x="1" y="1" width="46" height="46" rx="4"/>
        <path d="M0,4.00989318 C0,1.79529033 1.79405245,0 4.00989318,0 L43.9901068,0 C46.2047097,0 48,1.79405245 48,4.00989318 L48,43.9901068 C48,46.2047097 46.2059475,48 43.9901068,48 L4.00989318,48 C1.79529033,48 0,46.2059475 0,43.9901068 L0,4.00989318 Z M19,18.3 L25.5,18.3 L25.5,21.566 C26.437,19.688 28.838,18 32.445,18 C39.359,18 41,21.738 41,28.597 L41,41.3 L34,41.3 L34,30.159 C34,26.253 33.063,24.05 30.68,24.05 C27.375,24.05 26,26.425 26,30.159 L26,41.3 L19,41.3 L19,18.3 Z M7,41 L14,41 L14,18 L7,18 L7,41 Z M15,10.5 C15,12.985 12.985,15 10.5,15 C8.015,15 6,12.985 6,10.5 C6,8.015 8.015,6 10.5,6 C12.985,6 15,8.015 15,10.5 Z" class="background" fill="#F58E23"/>
      </g>
    </g>
  </g>
</svg>