<svg width="32" height="27" viewBox="0 0 32 2 7" fill="none" xmlns="http://www.w3.org/2000/svg">
<path fill-rule="evenodd" clip-rule="evenodd" d="M32 3.078C30.823 3.6 29.557 3.953 28.229 4.112C29.585 3.299 30.626 2.013 31.116 0.48C29.848 1.232 28.442 1.778 26.947 2.073C25.749 0.797 24.043 0 22.155 0C18.529 0 15.59 2.939 15.59 6.565C15.59 7.079 15.648 7.58 15.76 8.061C10.303 7.787 5.466 5.173 2.228 1.201C1.663 2.171 1.339 3.299 1.339 4.502C1.339 6.779 2.498 8.789 4.259 9.966C3.183 9.932 2.171 9.637 1.286 9.145C1.285 9.173 1.285 9.2 1.285 9.228C1.285 12.409 3.548 15.062 6.552 15.665C6.001 15.815 5.421 15.895 4.822 15.895C4.399 15.895 3.988 15.854 3.587 15.778C4.422 18.386 6.847 20.284 9.72 20.337C7.473 22.098 4.642 23.147 1.566 23.147C1.036 23.147 0.514 23.116 0 23.056C2.905 24.918 6.356 26.005 10.064 26.005C22.14 26.005 28.743 16.001 28.743 7.326C28.743 7.041 28.737 6.758 28.724 6.476C30.007 5.551 31.12 4.395 32 3.078Z" fill="#F58E23"/>
</svg>
